<?xml version="1.0" encoding="UTF-8"?>
<svg version="1.1" xmlns="http://www.w3.org/2000/svg" width="1248" height="832">
<path d="M0 0 C4.63485644 0.61060365 8.59503924 1.86360129 12.93359375 3.58984375 C14.32219919 4.13363322 15.71087387 4.67724591 17.09960938 5.22070312 C19.22264167 6.05919967 21.34452118 6.9004003 23.46459961 7.74633789 C48.00983045 17.50800441 73.36379234 24.83498893 98.8092041 31.81887817 C162.72652492 49.37753481 162.72652492 49.37753481 188 62 C188.72493652 62.35239746 189.44987305 62.70479492 190.19677734 63.06787109 C225.47387587 80.28561216 250.73087313 107.33443214 263.6875 144.4375 C276.25170465 184.06623728 274.88463249 226.15615812 270 267 C265.54645402 268.21707957 265.54645402 268.21707957 263.13476562 267.2590332 C262.56435547 266.86031006 261.99394531 266.46158691 261.40625 266.05078125 C260.76816406 265.61443359 260.13007812 265.17808594 259.47265625 264.72851562 C258.82167969 264.26123047 258.17070313 263.79394531 257.5 263.3125 C256.84902344 262.86455078 256.19804688 262.41660156 255.52734375 261.95507812 C253.66341962 260.66162774 251.82017105 259.35440739 250 258 C249.13979248 257.40775635 248.27958496 256.8155127 247.39331055 256.20532227 C244.51733136 253.55524372 243.99994164 251.87824074 243.11328125 248.1015625 C242.8203418 246.9153833 242.52740234 245.7292041 242.22558594 244.50708008 C241.92426758 243.22599365 241.62294922 241.94490723 241.3125 240.625 C240.63011129 237.88823094 239.92823414 235.15665409 239.22265625 232.42578125 C238.95278397 231.37619484 238.95278397 231.37619484 238.67745972 230.30540466 C226.9121557 185.04765546 205.96666563 140.53860921 173.41650391 106.48388672 C172.47330712 105.49582225 171.5354411 104.50264107 170.60302734 103.50439453 C145.38872734 76.55359665 114.75381494 64.89934152 79.90306091 55.61787415 C74.85977762 54.26340538 69.92224407 52.74024419 65 51 C74.5391359 60.23051679 85.73897422 65.60885251 98 70.375 C100.37989622 71.3256504 102.75879597 72.27879903 105.13671875 73.234375 C106.29864746 73.70037109 107.46057617 74.16636719 108.65771484 74.64648438 C132.21574058 84.18671043 150.49902687 96.5643919 169 114 C169.7321875 114.68964844 170.464375 115.37929688 171.21875 116.08984375 C177.46557981 122.150756 184.43337495 128.96570779 188 137 C184.49991355 138.16669548 183.94939864 137.83301995 180.67578125 136.453125 C179.3926001 135.92936279 179.3926001 135.92936279 178.08349609 135.39501953 C177.16906738 135.01716309 176.25463867 134.63930664 175.3125 134.25 C166.20443294 130.64682569 157.74782497 128.26894763 148 127 C147.33516602 126.90525391 146.67033203 126.81050781 145.98535156 126.71289062 C137.71354809 125.55070419 129.48409394 124.96752152 121.1328125 124.796875 C120.43577209 124.78129547 119.73873169 124.76571594 119.02056885 124.74966431 C115.5321864 124.67431189 112.04580161 124.62094022 108.55664062 124.60498047 C94.86226209 124.37674083 83.93970714 121.73368679 74.04296875 112.09375 C65.85262401 103.46273736 59.02383151 93.57547202 52 84 C51.42668945 83.21995605 50.85337891 82.43991211 50.26269531 81.63623047 C35.46115825 61.45271182 21.41106919 40.7578388 8.5 19.3125 C7.99525146 18.47468994 7.49050293 17.63687988 6.97045898 16.77368164 C0 5.09949308 0 5.09949308 0 0 Z " fill="#0A5723" transform="translate(505,292)"/>
<path d="M0 0 C2.91046034 0.60147652 5.02376126 1.4692272 7.49609375 3.109375 C8.13740234 3.53476562 8.77871094 3.96015625 9.43945312 4.3984375 C10.09880859 4.84445312 10.75816406 5.29046875 11.4375 5.75 C12.09298828 6.18054688 12.74847656 6.61109375 13.42382812 7.0546875 C14.06642578 7.48523438 14.70902344 7.91578125 15.37109375 8.359375 C15.94786865 8.74577148 16.52464355 9.13216797 17.11889648 9.53027344 C22.19525935 13.49649076 24.60570843 16.56316902 26.17578125 22.86328125 C26.34655182 23.52350784 26.51732239 24.18373444 26.69326782 24.8639679 C27.05763744 26.27682609 27.41472975 27.69157794 27.7651062 29.10797119 C28.69608538 32.85732026 29.69096613 36.58976092 30.6796875 40.32421875 C30.97416023 41.44358826 30.97416023 41.44358826 31.27458191 42.58557129 C37.68423787 66.80304442 47.2820333 89.8832699 59 112 C59.50732666 112.96679688 59.50732666 112.96679688 60.02490234 113.953125 C69.90768991 132.64258459 82.56621037 149.57851714 97 165 C97.44907715 165.48839355 97.8981543 165.97678711 98.36083984 166.47998047 C126.67809719 197.0757488 163.30014047 209.37135706 203 218 C191.91344369 206.75606041 176.37092764 201.84853464 162.01806641 196.07397461 C133.96734754 184.76294745 112.27702073 169.03104793 91.375 147.125 C90.67544189 146.39925781 89.97588379 145.67351562 89.25512695 144.92578125 C88.60116943 144.23097656 87.94721191 143.53617188 87.2734375 142.8203125 C86.68997559 142.20430176 86.10651367 141.58829102 85.50537109 140.95361328 C83.80750558 138.75018807 82.91940499 136.61372899 82 134 C85 133 85 133 87.20703125 133.85546875 C88.06683594 134.29503906 88.92664063 134.73460937 89.8125 135.1875 C111.77011638 145.57635912 138.52900812 147.35086186 162.5 147 C175.50495134 146.82727919 186.35665777 149.83378591 196 159 C197.86448721 161.08385853 199.56307616 163.27114019 201.25 165.5 C201.72324707 166.11456055 202.19649414 166.72912109 202.68408203 167.36230469 C203.65896558 168.62942576 204.63114557 169.89863154 205.60058594 171.16992188 C206.88207682 172.84578644 208.17576948 174.51097544 209.4765625 176.171875 C220.84636155 190.76373436 231.42685002 205.89454454 241.6496582 221.30639648 C243.32516506 223.83158778 245.00691964 226.35253332 246.68945312 228.87304688 C269 262.36647773 269 262.36647773 269 269 C261.72326526 268.53756961 255.80167515 266.13566202 249.125 263.3125 C232.4906888 256.3282219 215.4454412 251.14442324 198.09957886 246.24981689 C194.9142547 245.35079947 191.73053224 244.44628705 188.54711914 243.54052734 C180.04182769 241.12204319 171.53371513 238.71360063 163.02294922 236.31445312 C79.37443186 212.73322434 79.37443186 212.73322434 51 190 C49.96617187 189.18015625 48.93234375 188.3603125 47.8671875 187.515625 C16.70771188 162.29062578 1.84717502 127.6762297 -2.6875 88.35546875 C-5.66069298 59.30815579 -5.31422262 28.74570605 0 0 Z " fill="#0B3262" transform="translate(474,272)"/>
<path d="M0 0 C4.54454811 0.33663319 8.2007692 0.9630618 12.375 2.8046875 C18.32581683 5.25212129 24.43225062 6.80546266 30.66210938 8.37722778 C53.29126366 14.1157871 73.11486609 22.01550007 92.15698242 35.67773438 C93.41585576 36.58090804 94.67926832 37.4777796 95.9465332 38.36914062 C99.6833301 41.00288667 102.80628791 43.73201553 106 47 C107.57898149 48.4007543 109.16285766 49.79599925 110.75 51.1875 C120.3447705 59.80436922 128.17046482 69.80876896 136 80 C136.60070312 80.75539063 137.20140625 81.51078125 137.8203125 82.2890625 C139 84 139 84 139 86 C139.66 86.33 140.32 86.66 141 87 C142.40080877 89.22962063 143.71730383 91.45415975 145 93.75 C145.53367187 94.68199219 145.53367187 94.68199219 146.078125 95.6328125 C147.61003642 98.34223792 148.99785656 100.99447767 150.125 103.8984375 C150.79225266 106.18381438 150.79225266 106.18381438 153 106.875 C155 108 155 108 156.125 111.5625 C156.41375 112.696875 156.7025 113.83125 157 115 C157.66 115.33 158.32 115.66 159 116 C159 117.65 159 119.3 159 121 C159.66 121 160.32 121 161 121 C161.72697561 122.74233825 162.43098244 124.49427345 163.125 126.25 C163.51945313 127.22453125 163.91390625 128.1990625 164.3203125 129.203125 C165.11581335 132.47656528 164.60747788 133.1855961 163 136 C162.71914551 135.3922876 162.43829102 134.7845752 162.14892578 134.15844727 C149.65396156 107.24992087 135.02102607 82.04080832 114.41650391 60.48388672 C113.47330712 59.49582225 112.5354411 58.50264107 111.60302734 57.50439453 C86.38872734 30.55359665 55.75381494 18.89934152 20.90306091 9.61787415 C15.85977762 8.26340538 10.92224407 6.74024419 6 5 C15.5391359 14.23051679 26.73897422 19.60885251 39 24.375 C41.37989622 25.3256504 43.75879597 26.27879903 46.13671875 27.234375 C47.29864746 27.70037109 48.46057617 28.16636719 49.65771484 28.64648438 C80.8867383 41.29321236 80.8867383 41.29321236 92 53 C90.515 53.495 90.515 53.495 89 54 C86.7421875 52.55078125 86.7421875 52.55078125 83.875 50.3125 C70.41706359 40.42641342 54.29210595 33.95027961 38.6262207 28.43652344 C24.64215107 23.46132002 7.67261509 16.37329639 0 3 C0 2.01 0 1.02 0 0 Z " fill="#175230" transform="translate(564,338)"/>
<path d="M0 0 C4.67135013 0.61298663 8.66519193 1.88914369 13.0390625 3.625 C14.42576325 4.16838518 15.81256776 4.71150564 17.19946289 5.25439453 C17.92183136 5.53945862 18.64419983 5.82452271 19.38845825 6.1182251 C32.6725505 11.35558727 45.98404449 16.14322453 59.68017578 20.1953125 C60.76669434 20.5253125 61.85321289 20.8553125 62.97265625 21.1953125 C63.92406494 21.47391113 64.87547363 21.75250977 65.85571289 22.03955078 C66.56332764 22.35649902 67.27094238 22.67344727 68 23 C68.495 24.485 68.495 24.485 69 26 C63.26015793 25.43836689 58.18146005 24.3039728 52.73046875 22.453125 C51.96881912 22.20004578 51.20716949 21.94696655 50.42243958 21.68621826 C48.82036692 21.15186951 47.21952123 20.61382917 45.61987305 20.07226562 C43.20752948 19.25677098 40.79075757 18.45567221 38.37304688 17.65625 C30.78737128 15.12459871 23.38327128 12.50176704 16.17578125 9.00219727 C13.18014111 7.62236078 10.19858314 6.78187588 7 6 C7 7.32 7 8.64 7 10 C7.66 10.33 8.32 10.66 9 11 C9.66959512 12.60270831 10.33638187 14.20663186 10.99121094 15.81542969 C13.07983097 20.33841422 15.92560682 24.44874933 18.625 28.625 C19.25019531 29.59977295 19.87539063 30.5745459 20.51953125 31.57885742 C25.1931065 38.83313756 30.03010409 45.94660989 35 53 C36.19491257 54.72405265 37.38318981 56.45273745 38.5625 58.1875 C39.03816406 58.88230469 39.51382813 59.57710938 40.00390625 60.29296875 C41 62 41 62 41 64 C41.66 64 42.32 64 43 64 C44.01866229 65.65532623 45.01810813 67.32260138 46 69 C46.99 69.495 46.99 69.495 48 70 C48.89256898 71.57916051 49.78075029 73.16093851 50.6484375 74.75390625 C52.95086662 78.58019742 55.700166 82.08507363 58.390625 85.64453125 C60 88 60 88 60 90 C60.66 90 61.32 90 62 90 C62 90.99 62 91.98 62 93 C62.66 93 63.32 93 64 93 C64 93.66 64 94.32 64 95 C64.66 95 65.32 95 66 95 C67.40234375 96.8984375 67.40234375 96.8984375 68.9375 99.375 C70.86587629 102.48210246 71.89723073 103.93148715 75 106 C75 106.99 75 107.98 75 109 C75.66 109 76.32 109 77 109 C78.35432675 110.31200404 79.68733482 111.64631404 81 113 C81.66 113.33 82.32 113.66 83 114 C83 114.66 83 115.32 83 116 C83.83144531 116.20496094 84.66289063 116.40992188 85.51953125 116.62109375 C86.60621094 116.89050781 87.69289063 117.15992188 88.8125 117.4375 C89.89144531 117.70433594 90.97039062 117.97117187 92.08203125 118.24609375 C94.0740843 118.76077412 96.04811524 119.34937175 98 120 C100.47222792 120.11829192 102.92125935 120.18566529 105.39453125 120.2109375 C106.91334304 120.23679859 108.43214168 120.26344071 109.95092773 120.29077148 C111.14285233 120.31069656 111.14285233 120.31069656 112.3588562 120.33102417 C123.94258022 120.53863535 135.44862135 120.81390748 146.9375 122.4375 C147.80415283 122.5597998 148.67080566 122.68209961 149.5637207 122.80810547 C153.62364765 123.44299796 157.24503393 124.2476825 161 126 C160.67 126.99 160.34 127.98 160 129 C158.15148437 128.69255859 158.15148437 128.69255859 156.265625 128.37890625 C154.59378946 128.10652855 152.92191216 127.83440705 151.25 127.5625 C150.04150391 127.36043945 150.04150391 127.36043945 148.80859375 127.15429688 C139.65080941 125.67607184 130.55935919 124.98773369 121.28515625 124.82421875 C120.61541779 124.81217911 119.94567932 124.80013947 119.25564575 124.78773499 C116.50154799 124.73967671 113.74789167 124.69194797 110.9934082 124.67407227 C96.54424824 124.56285907 84.5927205 122.3697557 74.04296875 112.09375 C65.85262401 103.46273736 59.02383151 93.57547202 52 84 C51.42668945 83.21995605 50.85337891 82.43991211 50.26269531 81.63623047 C35.46115825 61.45271182 21.41106919 40.7578388 8.5 19.3125 C7.99525146 18.47468994 7.49050293 17.63687988 6.97045898 16.77368164 C0 5.09949308 0 5.09949308 0 0 Z " fill="#1E6D3E" transform="translate(505,292)"/>
<path d="M0 0 C83.36995323 20.20509749 83.36995323 20.20509749 119 38 C119.72493652 38.35239746 120.44987305 38.70479492 121.19677734 39.06787109 C156.47387587 56.28561216 181.73087313 83.33443214 194.6875 120.4375 C202.596797 145.18341934 202.596797 145.18341934 202 157 C201.34 157.99 200.68 158.98 200 160 C199.49265716 157.6263603 198.99397614 155.25142575 198.5 152.875 C198.35691406 152.20984375 198.21382812 151.5446875 198.06640625 150.859375 C196.02587891 140.94824219 196.02587891 140.94824219 198 137 C197.34 137 196.68 137 196 137 C195.01 134.36 194.02 131.72 193 129 C193.66 129 194.32 129 195 129 C195 128.01 195 127.02 195 126 C194.01 125.67 193.02 125.34 192 125 C191.25084254 122.95684329 190.52107922 120.90433838 189.89453125 118.8203125 C188.49182206 114.39779707 186.71334594 110.1253412 184.98828125 105.8203125 C184 103 184 103 184 100 C183.34 100 182.68 100 182 100 C181.443125 98.824375 180.88625 97.64875 180.3125 96.4375 C178.84354346 93.46799645 177.23700713 90.83684284 175.25 88.1875 C173 85 173 85 173 82 C172.34 82 171.68 82 171 82 C171 81.01 171 80.02 171 79 C170.401875 78.9175 169.80375 78.835 169.1875 78.75 C166.3762157 77.7861311 165.67304023 76.40044903 164 74 C163.01 73.34 162.02 72.68 161 72 C158.8125 70 158.8125 70 157 68 C157 67.34 157 66.68 157 66 C156.45601562 65.75765625 155.91203125 65.5153125 155.3515625 65.265625 C152.44247894 63.69993883 149.9853347 61.77490343 147.375 59.75 C142.13655676 55.74275621 136.72103145 52.27199373 131 49 C130.21753906 48.52046875 129.43507813 48.0409375 128.62890625 47.546875 C97.84195456 29.43152155 62.29400566 20.14186297 27.94287109 11.39941406 C20.37912554 9.46732225 12.94256266 7.45546411 5.58691406 4.81005859 C2.74319252 3.91958407 -0.05435007 3.4291925 -3 3 C-2.01 2.67 -1.02 2.34 0 2 C0 1.34 0 0.68 0 0 Z " fill="#14331E" transform="translate(574,316)"/>
<path d="M0 0 C2.69402058 0.38486008 3.83056738 0.82451621 5.75 2.8125 C8.30789728 5.29934458 10.78214656 6.50828154 14 7.97265625 C16 9 16 9 17.86181641 10.42675781 C37.13257064 24.60587865 66.03985181 32.28539392 89 38 C91.66514779 38.71102886 94.329141 39.42571791 96.9921875 40.14453125 C97.77457794 40.35559006 98.55696838 40.56664886 99.36306763 40.78410339 C101.02237493 41.23191791 102.68162443 41.67994666 104.34082031 42.12817383 C106.83111007 42.80064803 109.32179546 43.47164211 111.8125 44.14257812 C120.24140339 46.41695388 128.65523803 48.72970587 137.04223633 51.15478516 C140.75156425 52.21476809 144.47588599 53.21144803 148.20703125 54.19140625 C148.79871094 54.45824219 149.39039063 54.72507812 150 55 C150.33 55.99 150.66 56.98 151 58 C143.89508943 57.35272489 137.27207014 55.59306413 130.41015625 53.68359375 C128.58501747 53.18147118 128.58501747 53.18147118 126.7230072 52.66920471 C124.14437034 51.95822397 121.56646626 51.24504984 118.98950195 50.52807617 C115.13686131 49.45652428 111.28037431 48.399209 107.42382812 47.34179688 C37.08772107 27.94848346 37.08772107 27.94848346 7.1875 9.125 C6.45748779 8.67278076 5.72747559 8.22056152 4.9753418 7.75463867 C2.98046875 6.4453125 2.98046875 6.4453125 0 4 C0 2.68 0 1.36 0 0 Z " fill="#152E5C" transform="translate(529,461)"/>
<path d="M0 0 C5.80205656 5.64524422 5.80205656 5.64524422 8 9 C8 9.66 8 10.32 8 11 C8.66 11 9.32 11 10 11 C10 11.99 10 12.98 10 14 C10.66 14 11.32 14 12 14 C12 14.66 12 15.32 12 16 C12.66 16 13.32 16 14 16 C15.40234375 17.8984375 15.40234375 17.8984375 16.9375 20.375 C18.86587629 23.48210246 19.89723073 24.93148715 23 27 C23 27.99 23 28.98 23 30 C23.66 30 24.32 30 25 30 C26.35432675 31.31200404 27.68733482 32.64631404 29 34 C29.66 34.33 30.32 34.66 31 35 C31 35.66 31 36.32 31 37 C31.83144531 37.20496094 32.66289063 37.40992188 33.51953125 37.62109375 C34.60621094 37.89050781 35.69289063 38.15992188 36.8125 38.4375 C37.89144531 38.70433594 38.97039063 38.97117187 40.08203125 39.24609375 C42.0740843 39.76077412 44.04811524 40.34937175 46 41 C48.47222792 41.11829192 50.92125935 41.18566529 53.39453125 41.2109375 C54.91334304 41.23679859 56.43214168 41.26344071 57.95092773 41.29077148 C59.14285233 41.31069656 59.14285233 41.31069656 60.3588562 41.33102417 C71.94258022 41.53863535 83.44862135 41.81390748 94.9375 43.4375 C96.23747925 43.62094971 96.23747925 43.62094971 97.5637207 43.80810547 C101.62364765 44.44299796 105.24503393 45.2476825 109 47 C108.67 47.99 108.34 48.98 108 50 C106.76765625 49.79503906 105.5353125 49.59007812 104.265625 49.37890625 C102.59378946 49.10652855 100.92191216 48.83440705 99.25 48.5625 C98.44433594 48.42779297 97.63867188 48.29308594 96.80859375 48.15429688 C87.65080941 46.67607184 78.55935919 45.98773369 69.28515625 45.82421875 C68.61541779 45.81217911 67.94567932 45.80013947 67.25564575 45.78773499 C64.50154799 45.73967671 61.74789167 45.69194797 58.9934082 45.67407227 C44.54424824 45.56285907 32.5927205 43.3697557 22.04296875 33.09375 C16.56416416 27.32016743 11.80493055 20.95936495 7 14.625 C6.32831787 13.74440918 5.65663574 12.86381836 4.96459961 11.95654297 C4.33690674 11.11752441 3.70921387 10.27850586 3.0625 9.4140625 C2.21365234 8.28411865 2.21365234 8.28411865 1.34765625 7.13134766 C0.01973995 5.03121916 -0.66206848 3.45335599 -1 1 C-0.67 0.67 -0.34 0.34 0 0 Z " fill="#237642" transform="translate(557,371)"/>
<path d="M0 0 C0.66 0 1.32 0 2 0 C2 0.99 2 1.98 2 3 C2.99 3.33 3.98 3.66 5 4 C5.73046875 5.77734375 5.73046875 5.77734375 6.1875 7.9375 C6.34605469 8.64777344 6.50460937 9.35804688 6.66796875 10.08984375 C7 12 7 12 7 14 C7.99 14.33 8.98 14.66 10 15 C10.14695312 15.87398438 10.14695312 15.87398438 10.296875 16.765625 C12.17203457 28.81351217 12.17203457 28.81351217 18 39 C18.2734375 40.890625 18.2734375 40.890625 18.375 43.25 C18.92249677 50.09868683 20.94987185 56.47053525 23 63 C23.33128906 64.1034375 23.66257812 65.206875 24.00390625 66.34375 C24.73707612 69.11746442 24.73707612 69.11746442 27 70.25 C27.99 70.62125 27.99 70.62125 29 71 C31 73 31 73 32 75 C33.31252882 75.70674629 34.65278717 76.36184656 36 77 C38.3473481 78.3096792 40.67160275 79.6566939 43 81 C43.495 79.515 43.495 79.515 44 78 C44.66 78 45.32 78 46 78 C46 79.98 46 81.96 46 84 C43.96875 84.79296875 43.96875 84.79296875 41 85 C38.27638504 83.76136724 35.92485023 82.05311031 33.5 80.3125 C32.84902344 79.86455078 32.19804688 79.41660156 31.52734375 78.95507812 C29.66341962 77.66162774 27.82017105 76.35440739 26 75 C25.13979248 74.40775635 24.27958496 73.8155127 23.39331055 73.20532227 C20.51733136 70.55524372 19.99994164 68.87824074 19.11328125 65.1015625 C18.81969727 63.91401367 18.52611328 62.72646484 18.22363281 61.50292969 C17.77262207 59.58335449 17.77262207 59.58335449 17.3125 57.625 C16.64079387 54.91030592 15.95018673 52.20067366 15.25390625 49.4921875 C15.07564301 48.7959729 14.89737976 48.0997583 14.7137146 47.38244629 C12.72241419 39.72929524 10.27913218 32.23967228 7.75 24.75 C7.33790283 23.52104004 6.92580566 22.29208008 6.5012207 21.02587891 C4.20148172 14.26325705 1.74069106 7.59655987 -1 1 C-0.67 0.67 -0.34 0.34 0 0 Z " fill="#31864A" transform="translate(729,475)"/>
<path d="M0 0 C2.97 0.495 2.97 0.495 6 1 C5.34 2.32 4.68 3.64 4 5 C4.56203125 5.25523437 5.1240625 5.51046875 5.703125 5.7734375 C8.29382441 7.15690623 10.43351393 8.81929191 12.75 10.625 C24.35534573 19.09294255 37.48248422 24.06861171 50.76660156 29.28198242 C82.00928351 41.63125365 82.00928351 41.63125365 92 53 C90.515 53.495 90.515 53.495 89 54 C86.7421875 52.55078125 86.7421875 52.55078125 83.875 50.3125 C70.41706359 40.42641342 54.29210595 33.95027961 38.6262207 28.43652344 C24.64215107 23.46132002 7.67261509 16.37329639 0 3 C0 2.01 0 1.02 0 0 Z " fill="#205D36" transform="translate(564,338)"/>
<path d="M0 0 C6.44743578 -0.09497041 12.82407948 -0.07678933 19.25 0.5 C24.42509502 0.9579175 29.50103331 1.00741073 34.6875 0.9375 C48.02462716 0.83879377 59.07618113 3.56718654 69 13 C70.86447004 15.08383934 72.56331725 17.27097955 74.25 19.5 C74.715271 20.10513428 75.18054199 20.71026855 75.65991211 21.33374023 C76.62648244 22.59153865 77.59058287 23.85123881 78.55224609 25.11279297 C79.97304301 26.96486045 81.41416546 28.79894269 82.86328125 30.62890625 C83.76312815 31.77335313 84.66287199 32.91788105 85.5625 34.0625 C86.36816406 35.08472656 87.17382812 36.10695313 88.00390625 37.16015625 C89.82316827 39.74842139 90.98812002 42.01905629 92 45 C91.01 45 90.02 45 89 45 C89 44.01 89 43.02 89 42 C88.34 42 87.68 42 87 42 C86.67 40.35 86.34 38.7 86 37 C84.515 36.505 84.515 36.505 83 36 C82.66666667 34.66666667 82.33333333 33.33333333 82 32 C80.515 31.505 80.515 31.505 79 31 C77.31890781 29.52904433 76.00362608 28.00485958 74.66796875 26.21484375 C72.10006533 22.80500479 69.35765773 19.5370474 66.64453125 16.2421875 C65 14 65 14 65 12 C64.13375 11.8453125 64.13375 11.8453125 63.25 11.6875 C61 11 61 11 59.13354492 9.56225586 C51.58712793 4.03650665 42.0881785 4.68264535 33.1875 4.9375 C23.87272488 5.17634039 15.17303879 4.72000446 6 3 C6 2.34 6 1.68 6 1 C4.02 1 2.04 1 0 1 C0 0.67 0 0.34 0 0 Z " fill="#1B436A" transform="translate(601,418)"/>
<path d="M0 0 C12.53165982 3.02316131 24.94887298 6.42009156 37.36083984 9.89868164 C40.59740168 10.80477371 43.83573537 11.70431919 47.07421875 12.60351562 C57.59250495 15.53627824 68.08576882 18.55292593 78.5234375 21.76171875 C79.46643707 22.0426387 80.40943665 22.32355865 81.38101196 22.61299133 C82.2393161 22.88209824 83.09762024 23.15120514 83.98193359 23.4284668 C85.11433975 23.77617378 85.11433975 23.77617378 86.2696228 24.13090515 C88 25 88 25 89 28 C91.01508358 28.73323796 91.01508358 28.73323796 93 29 C88.9612729 30.34624237 87.1575976 29.26186311 83.15625 27.8671875 C82.47997559 27.63519653 81.80370117 27.40320557 81.10693359 27.16418457 C79.65675327 26.66656555 78.20781318 26.16532037 76.76000977 25.66082764 C72.97298985 24.34404354 69.17459381 23.06122267 65.375 21.78125 C64.63173462 21.53071869 63.88846924 21.28018738 63.12268066 21.02206421 C55.78065993 18.56357599 48.37373743 16.5871211 40.86083984 14.73095703 C34.15388159 13.01730001 27.48757314 11.14567985 20.8125 9.3125 C8.93745044 6.03728736 8.93745044 6.03728736 -3 3 C-2.01 2.67 -1.02 2.34 0 2 C0 1.34 0 0.68 0 0 Z " fill="#1D4A2E" transform="translate(574,316)"/>
<path d="M0 0 C13.53413028 2.27565022 27.21983632 6.92740185 39.4375 13.1875 C42.5974274 14.79518236 45.6118695 15.98356085 49 17 C48.72285156 16.48050781 48.44570313 15.96101562 48.16015625 15.42578125 C46.19266733 11.63783995 44.53662611 8.29300887 44 4 C47.02810548 5.05983692 47.96661945 5.94679017 49.703125 8.71484375 C50.21359375 9.77832031 50.7240625 10.84179688 51.25 11.9375 C52.03117188 13.52884766 52.03117188 13.52884766 52.828125 15.15234375 C54 18 54 18 54 21 C46.72186228 20.53748046 40.80380235 18.1316673 34.125 15.3125 C25.65035613 11.80605212 17.20787231 8.53557527 8.39501953 5.9777832 C4.38790363 4.74979607 2.08033593 3.73190033 0 0 Z " fill="#144371" transform="translate(689,520)"/>
<path d="M0 0 C5.85150079 5.85150079 3.18892782 22.57060602 3.18969727 30.69213867 C3.18897217 31.55685791 3.18824707 32.42157715 3.1875 33.3125 C3.1882251 34.19252686 3.1889502 35.07255371 3.18969727 35.97924805 C3.18844394 49.75205345 2.6518425 63.313305 1 77 C-0.48046875 75.7421875 -0.48046875 75.7421875 -2 74 C-2.32534257 69.96575208 -2.54205211 67.27493906 -0.95703125 63.546875 C0.11953281 60.68189637 0.04607675 59.12868083 -0.375 56.125 C-1.54933346 45.7657013 -1.36148839 35.3327244 0 25 C-0.33 25 -0.66 25 -1 25 C-0.67 16.75 -0.34 8.5 0 0 Z " fill="#1F6A39" transform="translate(775,473)"/>
<path d="M0 0 C7.49222595 2.08955598 14.65325789 4.74976431 21.875 7.625 C29.14698814 10.48956188 36.43107286 13.20718457 43.88671875 15.55078125 C44.53143127 15.75358704 45.1761438 15.95639282 45.84039307 16.16534424 C48.97909458 17.14631863 52.12333871 18.10457874 55.27490234 19.04345703 C56.40234863 19.38876465 57.52979492 19.73407227 58.69140625 20.08984375 C59.69373291 20.38753662 60.69605957 20.68522949 61.72875977 20.99194336 C62.47826904 21.32460205 63.22777832 21.65726074 64 22 C64.495 23.485 64.495 23.485 65 25 C59.26015793 24.43836689 54.18146005 23.3039728 48.73046875 21.453125 C47.96881912 21.20004578 47.20716949 20.94696655 46.42243958 20.68621826 C44.82036692 20.15186951 43.21952123 19.61382917 41.61987305 19.07226562 C39.20752948 18.25677098 36.79075757 17.45567221 34.37304688 16.65625 C26.00951135 13.86542519 17.96065069 10.81602668 10 7 C8.11174758 6.21077833 6.21833517 5.43326159 4.3125 4.6875 C3.48363281 4.36136719 2.65476562 4.03523438 1.80078125 3.69921875 C0.90939453 3.35310547 0.90939453 3.35310547 0 3 C-0.33 3.66 -0.66 4.32 -1 5 C-0.67 3.35 -0.34 1.7 0 0 Z " fill="#28663D" transform="translate(509,293)"/>
<path d="M0 0 C4.71019808 0.84652165 6.94770944 3.79728518 10 7.25 C10.52078125 7.82363281 11.0415625 8.39726562 11.578125 8.98828125 C13.07095531 10.64321182 14.53747124 12.31829676 16 14 C16.804375 14.90234375 17.60875 15.8046875 18.4375 16.734375 C18.953125 17.48203125 19.46875 18.2296875 20 19 C19.67 19.99 19.34 20.98 19 22 C10 19 1 16 -8 13 C-7.67 12.01 -7.34 11.02 -7 10 C-2.38 10.99 2.24 11.98 7 13 C6.67 12.01 6.34 11.02 6 10 C6.33 9.67 6.66 9.34 7 9 C6.34 8.67 5.68 8.34 5 8 C5 7.34 5 6.68 5 6 C4.34 6 3.68 6 3 6 C0 2.53846154 0 2.53846154 0 0 Z " fill="#134F2A" transform="translate(673,408)"/>
<path d="M0 0 C3.62104189 3.30213968 5.02418641 7.10309774 6.875 11.5625 C7.40226685 12.82864136 7.40226685 12.82864136 7.94018555 14.12036133 C14.00970803 29.08033424 20.60885986 47.81077377 18 64 C14.58095746 57.88020117 13.46591373 49.94312149 14 43 C14.33 42.34 14.66 41.68 15 41 C14.34 41 13.68 41 13 41 C12.01 38.36 11.02 35.72 10 33 C10.66 33 11.32 33 12 33 C12 32.01 12 31.02 12 30 C11.01 29.67 10.02 29.34 9 29 C8.24900077 26.95182029 7.51809323 24.89402319 6.890625 22.8046875 C5.87032199 19.59162803 4.63188001 16.50275313 3.375 13.375 C1.60593272 8.84342526 0.33813338 4.84657842 0 0 Z " fill="#173C24" transform="translate(757,412)"/>
<path d="M0 0 C0.66 0 1.32 0 2 0 C2 0.99 2 1.98 2 3 C2.99 3.33 3.98 3.66 5 4 C5.73046875 5.77734375 5.73046875 5.77734375 6.1875 7.9375 C6.34605469 8.64777344 6.50460937 9.35804688 6.66796875 10.08984375 C7 12 7 12 7 14 C7.99 14.33 8.98 14.66 10 15 C10.10957031 15.60585938 10.21914063 16.21171875 10.33203125 16.8359375 C11.15548949 21.1875461 12.07507521 25.4086538 13.4375 29.625 C14.84514796 34.1583483 15.84419148 38.72060233 16.75 43.375 C16.88978271 44.0654541 17.02956543 44.7559082 17.17358398 45.46728516 C17.83588509 49.00446688 18.02004169 51.56560823 17 55 C16.76925781 54.20118408 16.53851562 53.40236816 16.30078125 52.5793457 C11.69763664 36.72647047 6.90906685 21.1097085 0.70507812 5.79223633 C0.08435912 4.21443224 -0.46383232 2.60850304 -1 1 C-0.67 0.67 -0.34 0.34 0 0 Z " fill="#1A6D41" transform="translate(729,475)"/>
<path d="M0 0 C6.35299044 0.52144928 11.51789416 2.67924163 17.3125 5.25 C18.6418457 5.82427734 18.6418457 5.82427734 19.99804688 6.41015625 C25.38941665 8.76175299 30.6640455 11.28672604 35.89526367 13.97558594 C38.10378246 15.10728264 38.10378246 15.10728264 41 16 C41 16.66 41 17.32 41 18 C41.99 18.33 42.98 18.66 44 19 C43.67 20.32 43.34 21.64 43 23 C42.34 22.53851563 41.68 22.07703125 41 21.6015625 C31.6654914 15.45148261 21.72997421 11.35735435 11.37890625 7.19921875 C7.47816867 5.63101908 3.71381096 3.96838351 0 2 C0 1.34 0 0.68 0 0 Z " fill="#193664" transform="translate(630,463)"/>
<path d="M0 0 C1.58367747 0.14204741 3.16693318 0.28880153 4.75 0.4375 C5.63171875 0.51871094 6.5134375 0.59992188 7.421875 0.68359375 C10 1 10 1 11.72290039 1.51586914 C14.84994768 2.18070615 17.81574296 2.09208286 21.01171875 2.0625 C22.41609632 2.05376246 23.82047461 2.04514046 25.22485352 2.03662109 C25.95471466 2.03039734 26.68457581 2.02417358 27.43655396 2.01776123 C62.22967188 1.74322396 62.22967188 1.74322396 75 6 C74.67 6.99 74.34 7.98 74 9 C72.76765625 8.79503906 71.5353125 8.59007812 70.265625 8.37890625 C68.59378946 8.10652855 66.92191216 7.83440705 65.25 7.5625 C64.44433594 7.42779297 63.63867188 7.29308594 62.80859375 7.15429688 C53.63570215 5.67363327 44.5021573 4.9829298 35.21484375 4.7890625 C34.54037201 4.77465622 33.86590027 4.76024994 33.17098999 4.7454071 C30.3948951 4.68852547 27.61899801 4.6335773 24.8425293 4.59863281 C16.18210109 4.48109336 8.25127792 3.83518318 0 1 C0 0.67 0 0.34 0 0 Z " fill="#29634B" transform="translate(591,412)"/>
<path d="M0 0 C5.46490459 1.77032121 10.81102734 3.80357326 16.16601562 5.87695312 C19.7603628 7.24574061 23.18070996 8.3969542 27 9 C27 9.99 27 10.98 27 12 C21.43109483 11.52013969 16.32932432 10.70084819 11 9 C11 9.99 11 10.98 11 12 C6.71872287 11.51113445 4.90797457 10.38573844 2.125 7.125 C1.50882813 6.42632812 0.89265625 5.72765625 0.2578125 5.0078125 C-0.15726563 4.34523438 -0.57234375 3.68265625 -1 3 C-0.67 2.01 -0.34 1.02 0 0 Z " fill="#1A3E66" transform="translate(557,405)"/>
<path d="M0 0 C0.52464844 0.15855469 1.04929687 0.31710937 1.58984375 0.48046875 C5.76634731 1.7382843 9.9452866 2.98638756 14.1328125 4.20703125 C21.46833689 6.34689873 28.77549349 8.50426139 36 11 C36 11.66 36 12.32 36 13 C36.66 13.33 37.32 13.66 38 14 C30.72026837 13.03159533 23.76947434 11.16268351 16.75 9.0625 C15.89889648 8.80968262 15.04779297 8.55686523 14.17089844 8.29638672 C9.29055634 6.80977997 4.64804104 5.10418074 0 3 C0 2.01 0 1.02 0 0 Z " fill="#17335D" transform="translate(622,475)"/>
<path d="M0 0 C7.10276191 1.94309163 13.74155117 4.44676825 20.4375 7.5 C21.32115234 7.89058594 22.20480469 8.28117187 23.11523438 8.68359375 C23.96279297 9.06644531 24.81035156 9.44929688 25.68359375 9.84375 C26.44212646 10.18599609 27.20065918 10.52824219 27.98217773 10.88085938 C30.04485469 12.02487767 31.42806143 13.25555061 33 15 C28.69586186 16.43471271 25.8364133 14.5373157 21.875 12.8125 C21.11251953 12.48805908 20.35003906 12.16361816 19.56445312 11.8293457 C18.05510489 11.18517055 16.54756005 10.53675088 15.04199219 9.88378906 C13.3382888 9.14641385 11.62704676 8.42648789 9.9140625 7.7109375 C4.12923511 5.25847023 4.12923511 5.25847023 3 3 C2.01 2.67 1.02 2.34 0 2 C0 1.34 0 0.68 0 0 Z " fill="#193A24" transform="translate(663,342)"/>
<path d="M0 0 C2.94927219 0.60296591 5.04457304 1.49367646 7.53125 3.1796875 C8.17707031 3.61410156 8.82289063 4.04851562 9.48828125 4.49609375 C10.15214844 4.95113281 10.81601562 5.40617187 11.5 5.875 C12.16386719 6.32230469 12.82773437 6.76960938 13.51171875 7.23046875 C15.3501609 8.47444458 17.17682806 9.73379005 19 11 C19.8146875 11.55945313 20.629375 12.11890625 21.46875 12.6953125 C21.9740625 13.12585938 22.479375 13.55640625 23 14 C23 14.66 23 15.32 23 16 C17.84483096 14.76275943 14.38952779 13.09262185 10 10 C9.01 9.67 8.02 9.34 7 9 C5.3125 7.4375 5.3125 7.4375 4 6 C4 6.66 4 7.32 4 8 C2.68 8 1.36 8 0 8 C0 5.36 0 2.72 0 0 Z " fill="#174575" transform="translate(474,272)"/>
<path d="M0 0 C7.61898825 1.28106882 14.71654568 3.45517861 22 6 C23.74900794 6.58630111 25.49890352 7.16996647 27.25 7.75 C28.4875 8.1625 29.725 8.575 31 9 C30 11 30 11 28.22875977 11.71240234 C25.49887475 12.06466486 23.91801074 11.54556265 21.33984375 10.6015625 C20.0259668 10.12976563 20.0259668 10.12976563 18.68554688 9.6484375 C17.32526367 9.14183594 17.32526367 9.14183594 15.9375 8.625 C15.02677734 8.295 14.11605469 7.965 13.17773438 7.625 C11.48770583 7.01225568 9.79928567 6.39504397 8.11303711 5.77197266 C6.41877176 5.15299322 4.71122867 4.57040956 3 4 C1.3125 1.9375 1.3125 1.9375 0 0 Z " fill="#163869" transform="translate(689,520)"/>
<path d="M0 0 C0.99 0 1.98 0 3 0 C4.23050788 3.85559135 5.08393412 7.33557352 5.375 11.375 C5.77027762 15.74542805 7.24407212 19.06291581 9.14453125 22.98046875 C10.17389721 25.41052445 10.33710002 27.38747487 10 30 C9.01 30 8.02 30 7 30 C4.1078244 20.06504565 1.35141199 10.28686736 0 0 Z " fill="#18325D" transform="translate(473,370)"/>
<path d="M0 0 C1.485 0.99 1.485 0.99 3 2 C3.37109375 3.890625 3.37109375 3.890625 3.4375 6.25 C3.91627265 13.12238245 6.00001748 19.44156675 8 26 C8.67556427 28.33089761 9.33839109 30.66508426 10 33 C9.01 33.66 8.02 34.32 7 35 C4.727208 28.68158077 3.09404322 22.39973188 1.8125 15.8125 C1.63525391 14.94947266 1.45800781 14.08644531 1.27539062 13.19726562 C0.39003829 8.72948376 -0.21739356 4.58025733 0 0 Z " fill="#207D4B" transform="translate(744,512)"/>
<path d="M0 0 C3.88799544 1.29599848 5.07839444 3.62109164 7.23046875 6.8984375 C7.62575272 7.48920074 8.02103668 8.07996399 8.42829895 8.68862915 C9.26171797 9.938567 10.09110743 11.19119964 10.91674805 12.44628906 C12.18269548 14.36770783 13.46427388 16.27795841 14.74804688 18.1875 C15.55564638 19.40300929 16.36231872 20.61913521 17.16796875 21.8359375 C17.55228561 22.40790863 17.93660248 22.97987976 18.33256531 23.56918335 C20.11179394 26.29419162 21 27.67305758 21 31 C17.71573897 29.94434467 16.42848444 28.38339648 14.75 25.5 C13 22 13 22 13 20 C12.34 19.67 11.68 19.34 11 19 C9.25160484 16.34243936 8.00872518 14.02617555 7 11 C6.34 11 5.68 11 5 11 C4.67 9.02 4.34 7.04 4 5 C3.34 5 2.68 5 2 5 C1.34 3.35 0.68 1.7 0 0 Z " fill="#153B68" transform="translate(706,482)"/>
<path d="M0 0 C2.56306291 4.76947157 3.76680361 9.86442264 5.1875 15.0625 C5.47302734 16.06861328 5.75855469 17.07472656 6.05273438 18.11132812 C6.31763672 19.07619141 6.58253906 20.04105469 6.85546875 21.03515625 C7.09934326 21.9156665 7.34321777 22.79617676 7.59448242 23.70336914 C8 26 8 26 7 29 C3.55682149 27.27841074 3.15948789 23.40043301 1.95703125 19.91015625 C1.64121094 18.94980469 1.32539063 17.98945313 1 17 C0.75636719 16.27683594 0.51273437 15.55367188 0.26171875 14.80859375 C-1.27330579 9.63963357 -0.89283675 5.21223614 0 0 Z " fill="#114268" transform="translate(498,292)"/>
<path d="M0 0 C3.6746474 0.97205102 7.33844369 1.97977888 11 3 C12.18464844 3.32484375 13.36929688 3.6496875 14.58984375 3.984375 C15.75644531 4.31953125 16.92304687 4.6546875 18.125 5 C19.22070312 5.309375 20.31640625 5.61875 21.4453125 5.9375 C22.28835938 6.288125 23.13140625 6.63875 24 7 C24.33 7.99 24.66 8.98 25 10 C19.46442355 9.66108716 14.40022467 8.3619446 9.125 6.6875 C8.45847412 6.48680908 7.79194824 6.28611816 7.10522461 6.0793457 C4.12239318 5.09523629 2.32998208 4.49497312 0.5546875 1.83203125 C0.37164063 1.22746094 0.18859375 0.62289063 0 0 Z " fill="#255B38" transform="translate(549,308)"/>
<path d="M0 0 C13.81776765 2.89066059 13.81776765 2.89066059 19 6 C19.33 5.34 19.66 4.68 20 4 C20 4.66 20 5.32 20 6 C20.66 6 21.32 6 22 6 C21 8 21 8 19.20800781 8.70092773 C16.61283562 9.052441 15.13451125 8.64707894 12.671875 7.78515625 C11.87265625 7.51123047 11.0734375 7.23730469 10.25 6.95507812 C9.425 6.66052734 8.6 6.36597656 7.75 6.0625 C6.90953125 5.77181641 6.0690625 5.48113281 5.203125 5.18164062 C3.13194269 4.46378767 1.06466738 3.73633881 -1 3 C-0.67 2.01 -0.34 1.02 0 0 Z " fill="#1D5A38" transform="translate(666,418)"/>
<path d="M0 0 C4.71142171 4.71142171 3.11595174 15.60528859 3.23046875 22.0390625 C3 24 3 24 1 26 C0.34 25.67 -0.32 25.34 -1 25 C-0.67 16.75 -0.34 8.5 0 0 Z " fill="#1F5733" transform="translate(775,473)"/>
<path d="M0 0 C1.8125 0.0625 1.8125 0.0625 4 1 C5.625 4.375 5.625 4.375 7 8 C7.99 9.485 7.99 9.485 9 11 C10.75 13.9375 10.75 13.9375 12 17 C11.078125 19.19140625 11.078125 19.19140625 10 21 C8.51361733 18.25384196 7.03718828 15.50245309 5.5625 12.75 C5.14162109 11.97269531 4.72074219 11.19539063 4.28710938 10.39453125 C3.88427734 9.64042969 3.48144531 8.88632812 3.06640625 8.109375 C2.69459229 7.41811523 2.32277832 6.72685547 1.93969727 6.01464844 C1.00925892 4.01985051 0.45699179 2.14807202 0 0 Z " fill="#162F5C" transform="translate(483,407)"/>
<path d="M0 0 C5.28 0.66 10.56 1.32 16 2 C16 2.66 16 3.32 16 4 C17.98 4 19.96 4 22 4 C22 4.66 22 5.32 22 6 C14.1812896 5.53430878 6.63600985 4.77541538 -1 3 C-0.67 2.01 -0.34 1.02 0 0 Z " fill="#173C5D" transform="translate(585,415)"/>
<path d="M0 0 C2.78942975 2.78942975 2.99755332 5.87957519 3.6875 9.625 C3.82994141 10.31207031 3.97238281 10.99914062 4.11914062 11.70703125 C5.07047187 16.75239994 4.84761083 20.93708968 4 26 C-0.3580774 18.10785143 -0.30615054 8.79332385 0 0 Z " fill="#184829" transform="translate(771,450)"/>
<path d="M0 0 C0.66 0 1.32 0 2 0 C2 0.99 2 1.98 2 3 C2.99 3.33 3.98 3.66 5 4 C6.53560257 8.94805273 7.35852708 13.86821666 8 19 C7.34 19 6.68 19 6 19 C3.69 13.06 1.38 7.12 -1 1 C-0.67 0.67 -0.34 0.34 0 0 Z " fill="#145E35" transform="translate(729,475)"/>
<path d="M0 0 C11.7319956 9.53435954 11.7319956 9.53435954 12.3125 14.875 C12.1578125 15.926875 12.1578125 15.926875 12 17 C7.41283413 12.55618306 3.21237287 7.79771501 -1 3 C-0.67 2.01 -0.34 1.02 0 0 Z " fill="#134928" transform="translate(682,398)"/>
<path d="M0 0 C5.85659906 1.66153012 11.4590134 3.47041916 17 6 C16.67 6.99 16.34 7.98 16 9 C10.53262809 7.25192871 5.24175152 5.34205919 0 3 C-0.33 3.66 -0.66 4.32 -1 5 C-0.67 3.35 -0.34 1.7 0 0 Z " fill="#286B40" transform="translate(509,293)"/>
<path d="M0 0 C4.75 0.75 4.75 0.75 7 3 C7.33 3.66 7.66 4.32 8 5 C10.01669827 6.13350534 10.01669827 6.13350534 12 7 C11.67 7.66 11.34 8.32 11 9 C7.78147169 8.36934243 5.49198931 7.21979305 2.75 5.4375 C2.04359375 4.98246094 1.3371875 4.52742187 0.609375 4.05859375 C-0.18726563 3.53458984 -0.18726563 3.53458984 -1 3 C-0.67 2.01 -0.34 1.02 0 0 Z " fill="#2B894D" transform="translate(753,545)"/>
<path d="M0 0 C0.66 0.33 1.32 0.66 2 1 C2 1.66 2 2.32 2 3 C2.66 3 3.32 3 4 3 C4.28875 3.639375 4.5775 4.27875 4.875 4.9375 C5.82823451 7.15206079 5.82823451 7.15206079 8 8 C8 8.66 8 9.32 8 10 C8.99 10.33 9.98 10.66 11 11 C10.67 12.32 10.34 13.64 10 15 C7.12011993 12.20482229 4.32435285 9.34554952 1.625 6.375 C1.10164063 5.80523437 0.57828125 5.23546875 0.0390625 4.6484375 C-0.30382812 4.10445313 -0.64671875 3.56046875 -1 3 C-0.67 2.01 -0.34 1.02 0 0 Z " fill="#132B59" transform="translate(499,432)"/>
<path d="M0 0 C5.37722282 2.50318993 9.59391956 5.03452761 14 9 C13.01 9.66 12.02 10.32 11 11 C9.15830774 9.74131097 7.32682969 8.46766474 5.5 7.1875 C4.4790625 6.47980469 3.458125 5.77210938 2.40625 5.04296875 C1.6121875 4.36878906 0.818125 3.69460938 0 3 C0 2.01 0 1.02 0 0 Z " fill="#19522D" transform="translate(642,381)"/>
<path d="M0 0 C4.45341169 3.05626292 8.22078319 6.11580495 12 10 C12.99 10.66 13.98 11.32 15 12 C14.01 12.66 13.02 13.32 12 14 C7.71 10.04 3.42 6.08 -1 2 C-0.67 1.34 -0.34 0.68 0 0 Z " fill="#102959" transform="translate(576,427)"/>
<path d="M0 0 C0.33 0 0.66 0 1 0 C1.33 7.59 1.66 15.18 2 23 C-2 20 -2 20 -2.42578125 17.9921875 C-2.11111111 12.11111111 -2.11111111 12.11111111 -1 11 C-0.76636119 9.15108054 -0.58696365 7.29511969 -0.4375 5.4375 C-0.35371094 4.42558594 -0.26992188 3.41367187 -0.18359375 2.37109375 C-0.12300781 1.58863281 -0.06242187 0.80617188 0 0 Z " fill="#102F59" transform="translate(473,336)"/>
<path d="M0 0 C4.72463088 0.46319911 8.17057052 1.09891706 12 4 C12 4.66 12 5.32 12 6 C6.97734643 4.81819916 3.9050849 3.55007718 0 0 Z " fill="#22456D" transform="translate(560,408)"/>
<path d="M0 0 C3.4375 0.8125 3.4375 0.8125 7 2 C7.33 2.99 7.66 3.98 8 5 C2.25 4.125 2.25 4.125 0 3 C-0.33 3.66 -0.66 4.32 -1 5 C-0.67 3.35 -0.34 1.7 0 0 Z " fill="#2E7447" transform="translate(509,293)"/>
<path d="M0 0 C1.48206495 0.254496 2.96068615 0.52911762 4.4375 0.8125 C5.67306641 1.03873047 5.67306641 1.03873047 6.93359375 1.26953125 C7.95646484 1.63111328 7.95646484 1.63111328 9 2 C9.33 2.99 9.66 3.98 10 5 C6.44219804 4.39009109 3.3171411 3.4216319 0 2 C0 1.34 0 0.68 0 0 Z " fill="#256239" transform="translate(590,359)"/>
<path d="M0 0 C0.33 0 0.66 0 1 0 C1.05389087 1.95803507 1.09274217 3.91648909 1.125 5.875 C1.14820313 6.96554687 1.17140625 8.05609375 1.1953125 9.1796875 C1 12 1 12 -1 14 C-1.22331199 12.41870971 -1.42804644 10.83478911 -1.625 9.25 C-1.74101562 8.36828125 -1.85703125 7.4865625 -1.9765625 6.578125 C-2.00207817 3.77140122 -1.44843844 2.36615134 0 0 Z " fill="#1B3B68" transform="translate(472,309)"/>
<path d="M0 0 C3 2 3 2 3.51171875 4.1640625 C3.56972656 4.97617187 3.62773438 5.78828125 3.6875 6.625 C3.75324219 7.44226563 3.81898438 8.25953125 3.88671875 9.1015625 C3.92410156 9.72804688 3.96148438 10.35453125 4 11 C3.01 10.67 2.02 10.34 1 10 C0.67 6.7 0.34 3.4 0 0 Z " fill="#1C7B3E" transform="translate(744,512)"/>
<path d="M0 0 C2.5 1.8125 2.5 1.8125 5 4 C5 4.99 5 5.98 5 7 C3.02 6.34 1.04 5.68 -1 5 C-0.67 3.35 -0.34 1.7 0 0 Z " fill="#125D2E" transform="translate(680,417)"/>
<path d="M0 0 C4.24822374 0.47202486 6.19989709 2.96655518 9 6 C5.85262818 5.30058404 2.97411124 4.23921302 0 3 C0 2.01 0 1.02 0 0 Z " fill="#185B33" transform="translate(568,344)"/>
<path d="M0 0 C1.5625 1.5 1.5625 1.5 3 4 C2.96823234 6.77437543 2.50364148 9.25286467 2 12 C1.34 11.67 0.68 11.34 0 11 C-0.44921875 8.75 -0.44921875 8.75 -0.6875 6 C-0.77386719 5.0925 -0.86023438 4.185 -0.94921875 3.25 C-0.96597656 2.5075 -0.98273438 1.765 -1 1 C-0.67 0.67 -0.34 0.34 0 0 Z " fill="#193461" transform="translate(472,355)"/>
<path d="M0 0 C0.66 0 1.32 0 2 0 C2 1.98 2 3.96 2 6 C1.01 6.33 0.02 6.66 -1 7 C-1.625 5.1875 -1.625 5.1875 -2 3 C-1.34 2.01 -0.68 1.02 0 0 Z " fill="#267D3D" transform="translate(773,553)"/>
<path d="M0 0 C2.0245738 1.93254772 3.42105792 3.63158688 5 6 C5 6.99 5 7.98 5 9 C4.34 9 3.68 9 3 9 C3 8.34 3 7.68 3 7 C2.34 6.67 1.68 6.34 1 6 C0 5 0 5 -0.0625 2.4375 C-0.041875 1.633125 -0.02125 0.82875 0 0 Z " fill="#173C69" transform="translate(527,376)"/>
<path d="M0 0 C3 1 3 1 4.1875 2.875 C5 5 5 5 5 8 C4.34 8 3.68 8 3 8 C3 7.01 3 6.02 3 5 C2.34 5 1.68 5 1 5 C0.67 3.35 0.34 1.7 0 0 Z " fill="#143D68" transform="translate(516,354)"/>
<path d="M0 0 C1.32 0 2.64 0 4 0 C3.67 2.64 3.34 5.28 3 8 C0.37613513 4.93882432 0 4.26826873 0 0 Z " fill="#236644" transform="translate(505,292)"/>
<path d="M0 0 C1.67542976 0.28604898 3.34385343 0.61781233 5 1 C4.34 2.32 3.68 3.64 3 5 C1.68 3.68 0.36 2.36 -1 1 C-0.67 0.67 -0.34 0.34 0 0 Z " fill="#122955" transform="translate(521,456)"/>
</svg>
